<svg xmlns="http://www.w3.org/2000/svg" xmlns:xlink="http://www.w3.org/1999/xlink" version="1.1" x="0px" y="0px" viewBox="0 0 100 125" enable-background="new 0 0 100 100" xml:space="preserve"><path fill="#000000" d="M31.585,43.742l0.283,1.244c0,0,0,0.001,0.001,0.001v0.002c0.015,0.062,0.041,0.118,0.075,0.169  c0.003,0.003,0.003,0.007,0.005,0.01l0.81,1.138c0.011,0.016,0.028,0.021,0.041,0.035c0.022,0.025,0.038,0.054,0.066,0.075  l1.312,0.984c0.01,0.007,0.022,0.004,0.032,0.011c0.022,0.015,0.04,0.035,0.065,0.046l1.728,0.766  c0.015,0.006,0.029,0.004,0.045,0.01s0.028,0.017,0.046,0.021l2.013,0.459c0.018,0.004,0.034,0.004,0.052,0.006  c0.007,0.001,0.012,0.005,0.019,0.005l2.144,0.175c0.014,0.001,0.026,0.001,0.04,0.001l0,0h0.001h0.001l0,0  c0.014,0,0.027,0,0.04-0.001l2.122-0.175c0.007,0,0.013-0.004,0.02-0.005c0.018-0.002,0.035-0.002,0.053-0.006l1.969-0.459  c0.017-0.004,0.029-0.015,0.045-0.021c0.015-0.005,0.029-0.003,0.044-0.009l1.729-0.766c0.025-0.011,0.043-0.032,0.065-0.046  c0.01-0.006,0.022-0.003,0.032-0.011l1.312-0.984c0.028-0.021,0.046-0.051,0.068-0.077c0.012-0.013,0.028-0.019,0.039-0.034  l0.809-1.138c0.002-0.002,0.002-0.006,0.004-0.009c0.034-0.05,0.062-0.106,0.076-0.169l0.001-0.003c0,0,0,0,0,0l0.284-1.244  c0.004-0.019-0.001-0.037,0.001-0.056c0.003-0.019,0.012-0.036,0.012-0.056v-4.024c0-0.015-0.007-0.026-0.008-0.041  c-0.002-0.02,0-0.04-0.005-0.059c-0.001-0.004,0.001-0.008,0-0.012l-0.283-1.238c0-0.001-0.001-0.002-0.001-0.004l-0.001-0.005  c-0.007-0.028-0.023-0.051-0.034-0.077c-0.014-0.033-0.021-0.068-0.043-0.098l-0.004-0.006c0,0,0,0-0.001-0.001l-0.804-1.152  c-0.016-0.022-0.039-0.035-0.058-0.054c-0.019-0.02-0.03-0.043-0.053-0.06l-1.312-0.984c-0.016-0.012-0.035-0.015-0.052-0.025  s-0.028-0.024-0.046-0.032l-1.729-0.766c-0.015-0.007-0.03-0.005-0.046-0.01c-0.016-0.005-0.027-0.016-0.043-0.02l-1.969-0.46  c-0.012-0.002-0.023,0.001-0.035-0.001c-0.014-0.002-0.023-0.01-0.037-0.011l-2.122-0.175c-0.014-0.001-0.026,0.005-0.04,0.005  c-0.015,0-0.027-0.006-0.042-0.005l-2.144,0.175c-0.013,0.001-0.022,0.008-0.035,0.01c-0.012,0.002-0.023-0.002-0.035,0.001  l-2.013,0.46c-0.017,0.004-0.028,0.015-0.044,0.02s-0.032,0.003-0.047,0.01l-1.728,0.766c-0.019,0.008-0.029,0.023-0.046,0.033  c-0.018,0.01-0.036,0.013-0.052,0.024L32.866,36.8c-0.021,0.016-0.034,0.04-0.052,0.058c-0.02,0.02-0.043,0.033-0.059,0.056  l-0.804,1.15c-0.001,0.002-0.003,0.004-0.004,0.006l-0.002,0.002c-0.015,0.021-0.019,0.045-0.029,0.067  c-0.018,0.035-0.039,0.068-0.048,0.108l-0.001,0.005c-0.001,0.001-0.001,0.003-0.001,0.004l-0.282,1.238  c-0.001,0.004,0.001,0.008,0,0.012c-0.004,0.02-0.003,0.039-0.005,0.059c-0.001,0.014-0.008,0.026-0.008,0.041v4.024  c0,0.02,0.009,0.037,0.012,0.056C31.586,43.706,31.581,43.724,31.585,43.742z M34.733,36.649l1.631-0.723l1.929-0.44l2.069-0.169  l2.047,0.168l1.885,0.44l1.633,0.723l1.202,0.902l0.708,1.015l0.237,1.038l-0.237,1.02l-0.705,1.012l-1.204,0.883l-1.634,0.724  l-1.89,0.462l-2.043,0.146l-2.064-0.147l-1.932-0.462l-1.633-0.724l-1.204-0.883l-0.706-1.012l-0.237-1.02l0.237-1.038l0.709-1.015  L34.733,36.649z"/><path fill="#000000" d="M50.285,54.512l0.24,1.225c0,0.002,0.002,0.004,0.002,0.006c0.004,0.018,0.014,0.033,0.02,0.05  c0.014,0.044,0.03,0.087,0.055,0.124c0.004,0.004,0.004,0.01,0.007,0.015l0.81,1.138c0.011,0.016,0.028,0.021,0.041,0.035  c0.021,0.025,0.039,0.054,0.066,0.074l1.312,0.984c0.01,0.008,0.021,0.005,0.032,0.012c0.022,0.014,0.04,0.035,0.065,0.046  l1.728,0.766c0.013,0.006,0.027,0.004,0.041,0.009c0.015,0.005,0.025,0.016,0.04,0.02l2.013,0.502  c0.024,0.006,0.048,0.007,0.071,0.01c0.007,0,0.013,0.004,0.02,0.005l2.144,0.131c0.01,0.001,0.021,0.001,0.03,0.001  s0.021,0,0.031-0.001l2.122-0.131c0.008-0.001,0.014-0.005,0.021-0.006c0.024-0.002,0.048-0.003,0.072-0.009l1.969-0.503  c0.015-0.004,0.025-0.015,0.04-0.02c0.013-0.004,0.025-0.002,0.038-0.008l1.729-0.766c0.025-0.011,0.043-0.032,0.065-0.046  c0.011-0.007,0.022-0.004,0.032-0.012l1.312-0.984c0.027-0.021,0.045-0.049,0.066-0.074c0.013-0.014,0.03-0.02,0.041-0.035  l0.81-1.138c0.001-0.002,0.001-0.005,0.003-0.007c0.033-0.048,0.061-0.102,0.075-0.162l0.306-1.226c0.005-0.021,0-0.041,0.003-0.062  c0.002-0.021,0.012-0.039,0.012-0.06v-4.047c0-0.014-0.007-0.025-0.008-0.038c-0.001-0.021-0.002-0.041-0.006-0.061  c-0.001-0.008,0.001-0.015-0.001-0.022l-0.306-1.225c-0.008-0.03-0.026-0.053-0.038-0.08c-0.013-0.028-0.019-0.059-0.037-0.085  l-0.81-1.159c-0.017-0.023-0.04-0.036-0.059-0.056c-0.019-0.019-0.03-0.042-0.052-0.058L65.141,46.6  c-0.016-0.012-0.035-0.015-0.052-0.024s-0.028-0.025-0.046-0.033l-1.729-0.766c-0.015-0.007-0.031-0.005-0.046-0.01  c-0.016-0.005-0.027-0.016-0.043-0.02l-1.969-0.46c-0.012-0.003-0.023,0.001-0.035-0.001c-0.013-0.002-0.023-0.01-0.037-0.011  l-2.122-0.175c-0.013,0-0.024,0.005-0.037,0.005c-0.016,0-0.029-0.007-0.045-0.005l-2.144,0.175  c-0.013,0.001-0.022,0.008-0.034,0.01c-0.013,0.002-0.023-0.002-0.036,0.001l-2.013,0.46c-0.017,0.004-0.028,0.015-0.044,0.02  c-0.016,0.005-0.032,0.003-0.047,0.01l-1.728,0.766c-0.018,0.008-0.029,0.023-0.046,0.032c-0.017,0.01-0.036,0.013-0.052,0.025  l-1.312,0.984c-0.021,0.016-0.033,0.04-0.052,0.058c-0.02,0.02-0.042,0.033-0.059,0.056l-0.81,1.159c0,0,0,0.001-0.001,0.001  c-0.019,0.028-0.026,0.062-0.04,0.093c-0.014,0.032-0.032,0.061-0.038,0.094c0,0-0.001,0.001-0.001,0.002l-0.238,1.216  c-0.001,0.002-0.001,0.003-0.001,0.004l-0.001,0.004c-0.003,0.016,0.002,0.031,0,0.047c-0.002,0.017-0.01,0.032-0.01,0.049v4.047  c0,0.018,0.008,0.032,0.01,0.05C50.287,54.48,50.282,54.495,50.285,54.512z M53.393,47.434l1.631-0.723l1.929-0.44l2.069-0.169  l2.047,0.168l1.885,0.44l1.633,0.723l1.203,0.902l0.711,1.018l0.253,1.014L66.5,51.383l-0.711,1.019l-1.199,0.899l-1.637,0.705  l-1.889,0.461l-2.043,0.147l-2.066-0.147l-1.932-0.462l-1.634-0.704l-1.2-0.899l-0.704-1.009l-0.201-1.024l0.201-1.023l0.704-1.009  L53.393,47.434z"/><path fill="#000000" d="M1.979,32.847v24.26c0,0.357,0.19,0.688,0.5,0.866l56.043,32.331c0.155,0.089,0.327,0.134,0.5,0.134  s0.346-0.045,0.5-0.134l37.319-21.547c0.31-0.179,0.5-0.509,0.5-0.866v-24.26c0-0.357-0.19-0.688-0.5-0.866l-55.978-32.33  c-0.311-0.18-0.689-0.18-0.998-0.002L2.479,31.98C2.17,32.159,1.979,32.489,1.979,32.847z M21.638,24.555l2.069,0.169l1.929,0.44  l1.631,0.723l1.205,0.903l0.707,0.994l0.236,1.035l-0.236,1.019l-0.707,0.994l-1.205,0.903l-1.632,0.723l-1.931,0.461l-2.066,0.148  l-2.043-0.148l-1.888-0.46l-1.634-0.724l-1.206-0.904l-0.705-0.992l-0.236-1.02l0.236-1.036l0.284-0.399l4.247-2.451l0.897-0.209  L21.638,24.555z M12.925,28.71c-0.001,0.004,0.001,0.008,0,0.012c-0.004,0.019-0.003,0.039-0.005,0.058  c-0.001,0.014-0.008,0.026-0.008,0.041v4.025c0,0.02,0.009,0.037,0.012,0.056c0.002,0.019-0.003,0.037,0.001,0.056l0.284,1.244l0,0  l0.001,0.003c0.015,0.063,0.042,0.119,0.076,0.169c0.002,0.002,0.002,0.006,0.004,0.009l0.809,1.138  c0.011,0.015,0.027,0.021,0.039,0.034c0.022,0.026,0.04,0.055,0.068,0.077l1.312,0.984c0.01,0.007,0.022,0.004,0.032,0.011  c0.022,0.015,0.04,0.035,0.065,0.046l1.729,0.766c0.015,0.006,0.029,0.004,0.044,0.009c0.016,0.005,0.028,0.017,0.045,0.021  l1.969,0.459c0.018,0.004,0.035,0.004,0.053,0.006c0.007,0.001,0.013,0.005,0.02,0.005l2.122,0.175  c0.013,0.001,0.026,0.001,0.04,0.001l0,0h0.001h0.001l0,0c0.014,0,0.026,0,0.04-0.001l2.144-0.175c0.007,0,0.012-0.004,0.019-0.005  c0.018-0.002,0.034-0.002,0.052-0.006l2.013-0.459c0.018-0.004,0.03-0.015,0.046-0.021s0.03-0.003,0.045-0.01l1.728-0.766  c0.025-0.011,0.043-0.032,0.065-0.046c0.01-0.006,0.022-0.003,0.032-0.011l1.312-0.984c0.028-0.021,0.044-0.05,0.066-0.075  c0.013-0.014,0.03-0.02,0.041-0.035l0.81-1.138c0.002-0.003,0.002-0.007,0.004-0.01c0.035-0.05,0.062-0.106,0.076-0.169v-0.002  c0.001,0,0.001-0.001,0.001-0.002l0.283-1.243c0.004-0.019-0.001-0.037,0.001-0.055c0.003-0.019,0.012-0.036,0.012-0.056v-4.025  c0-0.015-0.007-0.027-0.008-0.041c-0.002-0.02-0.001-0.04-0.005-0.059c-0.001-0.004,0.001-0.008,0-0.012l-0.283-1.242  c0-0.001,0-0.001-0.001-0.002v-0.002c-0.016-0.068-0.044-0.129-0.083-0.183l-0.807-1.134c-0.016-0.021-0.038-0.034-0.057-0.053  c-0.018-0.019-0.029-0.041-0.051-0.057l-1.312-0.984c-0.016-0.012-0.034-0.015-0.052-0.024c-0.016-0.01-0.027-0.025-0.046-0.033  l-1.728-0.766c-0.016-0.007-0.031-0.005-0.047-0.011c-0.016-0.005-0.027-0.016-0.044-0.02l-2.013-0.46  c-0.012-0.003-0.023,0.001-0.036-0.001c-0.012-0.002-0.021-0.009-0.034-0.01l-2.144-0.175c-0.015,0-0.026,0.005-0.04,0.005  c-0.015,0-0.027-0.007-0.042-0.005l-0.6,0.049l10.701-6.176l-0.113,0.498c-0.001,0.004,0.001,0.008,0,0.012  c-0.004,0.019-0.002,0.037-0.004,0.056c-0.001,0.016-0.009,0.028-0.009,0.044v4.047c0,0.02,0.009,0.036,0.011,0.055  c0.003,0.02-0.003,0.039,0.002,0.058l0.282,1.216c0,0,0,0.001,0,0.001l0.002,0.008c0.015,0.061,0.041,0.116,0.074,0.166  c0.001,0.002,0.001,0.005,0.003,0.008l0.81,1.159c0.011,0.015,0.028,0.021,0.04,0.035c0.022,0.026,0.041,0.057,0.07,0.079  l1.312,0.984c0.01,0.007,0.022,0.004,0.032,0.011c0.022,0.015,0.04,0.035,0.065,0.046l1.728,0.766  c0.015,0.006,0.029,0.004,0.045,0.01s0.028,0.017,0.046,0.021l2.013,0.459c0.018,0.004,0.034,0.004,0.052,0.006  c0.007,0.001,0.012,0.005,0.019,0.005l2.144,0.175c0.014,0.001,0.026,0.001,0.04,0.001l0,0h0.001h0.001l0,0  c0.014,0,0.027,0,0.04-0.001l2.122-0.175c0.007,0,0.013-0.004,0.02-0.005c0.018-0.002,0.035-0.002,0.053-0.006l1.969-0.459  c0.017-0.004,0.029-0.015,0.045-0.021c0.015-0.005,0.029-0.003,0.044-0.009l1.729-0.766c0.025-0.011,0.043-0.032,0.065-0.046  c0.01-0.006,0.022-0.003,0.032-0.011l1.312-0.984c0.029-0.022,0.048-0.052,0.07-0.079c0.012-0.014,0.029-0.02,0.04-0.035  l0.809-1.159c0.002-0.002,0.002-0.005,0.003-0.007c0.033-0.05,0.06-0.104,0.074-0.166l0.285-1.226  c0.005-0.02-0.001-0.039,0.002-0.059c0.002-0.019,0.011-0.035,0.011-0.055v-4.047c0-0.016-0.008-0.028-0.009-0.043  c-0.002-0.019,0-0.038-0.004-0.057c-0.001-0.004,0.001-0.008,0-0.012l-0.115-0.505l10.706,6.183l-0.604-0.05  c-0.013,0-0.025,0.005-0.038,0.005c-0.016,0-0.028-0.006-0.044-0.005l-2.144,0.175c-0.013,0.001-0.022,0.008-0.034,0.01  c-0.012,0.002-0.023-0.001-0.036,0.001l-2.013,0.46c-0.017,0.004-0.028,0.015-0.044,0.02c-0.016,0.005-0.032,0.004-0.047,0.011  l-1.728,0.766c-0.018,0.008-0.029,0.023-0.046,0.033c-0.017,0.009-0.036,0.012-0.052,0.024l-1.312,0.984  c-0.021,0.016-0.033,0.04-0.052,0.058s-0.04,0.03-0.056,0.052l-0.81,1.138c-0.001,0.001-0.001,0.003-0.002,0.005  c-0.022,0.031-0.033,0.07-0.048,0.106c-0.01,0.026-0.025,0.05-0.031,0.077c0,0.002-0.002,0.004-0.003,0.007l-0.24,1.246  c-0.003,0.017,0.002,0.032,0.001,0.049c-0.002,0.016-0.01,0.029-0.01,0.046v4.025c0,0.017,0.008,0.03,0.01,0.046  c0.001,0.017-0.004,0.032-0.001,0.049l0.24,1.247c0.001,0.003,0.003,0.005,0.003,0.008c0.003,0.014,0.012,0.027,0.016,0.041  c0.015,0.048,0.032,0.093,0.059,0.132c0.004,0.004,0.004,0.01,0.007,0.014l0.81,1.138c0.011,0.016,0.028,0.021,0.041,0.035  c0.021,0.025,0.039,0.054,0.066,0.075l1.312,0.984c0.01,0.007,0.021,0.004,0.032,0.011c0.022,0.015,0.04,0.035,0.065,0.046  l1.728,0.766c0.015,0.006,0.03,0.004,0.044,0.01c0.017,0.005,0.029,0.017,0.047,0.021l2.013,0.459  c0.018,0.004,0.034,0.004,0.052,0.006c0.007,0.001,0.012,0.005,0.019,0.005l2.144,0.175c0.014,0.001,0.026,0.001,0.039,0.001  c0.001,0,0.001,0,0.001,0h0.001h0.001c0,0,0,0,0.001,0c0.014,0,0.026,0,0.039-0.001l2.122-0.175c0.007,0,0.013-0.004,0.019-0.005  c0.019-0.002,0.036-0.002,0.054-0.006l1.969-0.459c0.017-0.004,0.029-0.015,0.045-0.021c0.015-0.005,0.03-0.003,0.044-0.009  l1.729-0.766c0.025-0.011,0.043-0.032,0.065-0.046c0.011-0.006,0.022-0.003,0.032-0.011l1.312-0.984  c0.027-0.021,0.045-0.05,0.066-0.075c0.013-0.014,0.03-0.02,0.041-0.035l0.81-1.138c0.002-0.002,0.002-0.005,0.003-0.007  c0.034-0.048,0.061-0.103,0.075-0.164l0.003-0.01c0,0,0-0.001,0-0.001l0.303-1.236c0.005-0.02,0-0.039,0.003-0.059  c0.002-0.021,0.012-0.039,0.012-0.06v-4.025c0-0.014-0.007-0.025-0.008-0.038c-0.001-0.021-0.002-0.041-0.006-0.061  c-0.001-0.007,0.001-0.014-0.001-0.021l-0.122-0.497l10.665,6.159l-0.574-0.047c-0.014-0.001-0.026,0.005-0.04,0.005  c-0.015,0-0.027-0.006-0.042-0.005l-2.145,0.175c-0.013,0.001-0.022,0.008-0.035,0.01c-0.012,0.002-0.023-0.002-0.035,0.001  l-2.012,0.46c-0.018,0.004-0.03,0.016-0.047,0.021c-0.017,0.006-0.034,0.004-0.051,0.012l-1.663,0.766  c-0.017,0.008-0.027,0.022-0.043,0.032s-0.033,0.011-0.048,0.022L70.25,36.8c-0.02,0.015-0.031,0.037-0.048,0.054  c-0.019,0.019-0.042,0.032-0.059,0.055l-0.828,1.155c-0.038,0.052-0.066,0.113-0.082,0.18c-0.001,0.002-0.002,0.004-0.003,0.007  l-0.283,1.245c-0.001,0.004,0,0.008,0,0.012c-0.004,0.02-0.003,0.039-0.004,0.059c-0.002,0.014-0.009,0.026-0.009,0.041v4.024  c0,0.02,0.009,0.037,0.012,0.056c0.002,0.019-0.003,0.037,0.001,0.055l0.284,1.247c0,0.001,0.001,0.001,0.001,0.002  c0.001,0.005,0.005,0.009,0.006,0.015c0.016,0.057,0.039,0.109,0.072,0.155c0.002,0.004,0.002,0.008,0.005,0.012l0.831,1.138  c0.011,0.015,0.028,0.021,0.04,0.034c0.021,0.023,0.037,0.051,0.063,0.071l1.312,0.984c0.009,0.007,0.021,0.004,0.03,0.01  c0.021,0.014,0.037,0.033,0.061,0.044l1.663,0.766c0.015,0.007,0.031,0.005,0.047,0.01c0.018,0.006,0.031,0.019,0.051,0.023  l2.012,0.459c0.018,0.004,0.034,0.004,0.052,0.006c0.007,0.001,0.012,0.005,0.019,0.005l2.145,0.175  c0.014,0.001,0.026,0.001,0.039,0.001c0.001,0,0.001,0,0.001,0h0.001h0.001c0,0,0,0,0.001,0c0.014,0,0.026,0,0.039-0.001  l2.121-0.175c0.007,0,0.013-0.004,0.02-0.005c0.018-0.002,0.035-0.002,0.053-0.006l1.969-0.459c0.017-0.004,0.029-0.015,0.045-0.021  c0.015-0.005,0.029-0.003,0.044-0.009l1.729-0.766c0.025-0.011,0.043-0.032,0.065-0.046c0.01-0.006,0.022-0.003,0.032-0.011  l1.312-0.984c0.026-0.02,0.042-0.047,0.063-0.071c0.012-0.014,0.029-0.019,0.04-0.034l0.831-1.138  c0.003-0.003,0.003-0.008,0.006-0.012c0.031-0.046,0.057-0.098,0.071-0.156c0.001-0.005,0.005-0.009,0.006-0.014  c0-0.001,0.001-0.001,0.001-0.002l0.284-1.247c0.004-0.019-0.001-0.037,0.001-0.055c0.003-0.019,0.012-0.036,0.012-0.056v-4.024  c0-0.015-0.007-0.027-0.008-0.041c-0.002-0.02-0.001-0.039-0.005-0.059c-0.001-0.004,0.001-0.008,0-0.012l-0.116-0.509l8.543,4.934  l-35.82,20.703L4.479,33.136l8.563-4.942L12.925,28.71z M34.976,15.537l2.474-1.417l0.848-0.203l2.065-0.148l2.042,0.147  l0.849,0.208l4.312,2.49l0.273,0.384l0.237,1.038l-0.237,1.039l-0.705,0.992l-1.206,0.904l-1.633,0.723l-1.885,0.439l-2.047,0.168  l-2.069-0.169l-1.93-0.439l-1.63-0.723l-1.205-0.903l-0.707-0.994l-0.236-1.038l0.236-1.038l0.265-0.372L34.976,15.537z   M40.398,12.77c-0.013-0.001-0.023,0.004-0.036,0.004s-0.023-0.005-0.036-0.004l-0.594,0.042l0.627-0.359l0.621,0.358L40.398,12.77z   M53.393,25.887l1.631-0.723l1.929-0.44l2.069-0.169l2.047,0.168l0.899,0.21l4.247,2.453l0.285,0.401l0.254,1.032L66.5,29.835  l-0.709,0.997l-1.205,0.903l-1.634,0.724l-1.888,0.46l-2.043,0.148l-2.066-0.148l-1.931-0.461l-1.632-0.723l-1.205-0.903  l-0.702-0.988l-0.2-1.022l0.201-1.046l0.701-0.986L53.393,25.887z M72.119,36.648l1.568-0.722l1.924-0.439l2.07-0.169l2.046,0.168  l0.858,0.201l4.311,2.49l0.282,0.393l0.236,1.035l-0.236,1.017l-0.726,1.013l-1.207,0.885l-1.634,0.724l-1.89,0.462l-2.042,0.146  l-2.065-0.147l-1.926-0.461l-1.57-0.723l-1.21-0.887l-0.726-1.013l-0.236-1.017l0.236-1.035l0.729-1.016L72.119,36.648z   M3.979,56.529V34.001l54.543,31.488v22.505L3.979,56.529z"/><text x="0" y="115" fill="#000000" font-size="5px" font-weight="bold" font-family="'Helvetica Neue', Helvetica, Arial-Unicode, Arial, Sans-serif">Created by Lluisa Iborra</text><text x="0" y="120" fill="#000000" font-size="5px" font-weight="bold" font-family="'Helvetica Neue', Helvetica, Arial-Unicode, Arial, Sans-serif">from the Noun Project</text></svg>